<svg xmlns="http://www.w3.org/2000/svg" viewBox="0 0 1200 900" width="1200" height="900"><rect width="1200" height="900" fill="#f8fafc"/><path d="M667.79 72.00 L671.18 78.44 L676.46 88.51 L677.52 92.93 L680.21 99.62 L690.22 118.72 L698.03 138.78 L699.30 140.96 L703.37 145.84 L704.93 149.93 L723.83 176.14 L731.17 186.52 L739.96 195.98 L741.20 196.97 L747.09 203.71 L747.40 206.56 L747.42 209.98 L748.12 212.89 L752.14 215.06 L753.30 217.40 L756.61 227.92 L758.09 230.36 L759.86 231.39 L761.35 232.90 L766.51 242.80 L769.61 246.61 L770.68 248.71 L771.09 250.93 L771.88 253.09 L777.35 258.98 L779.10 263.81 L780.65 274.35 L782.78 280.16 L788.59 288.11 L789.04 289.77 L788.37 291.38 L787.32 292.92 L786.65 294.42 L786.61 295.77 L787.43 300.13 L788.43 312.58 L789.48 318.33 L793.24 330.07 L793.55 335.81 L792.37 341.13 L789.81 345.96 L787.73 351.69 L787.76 351.92 L788.34 357.40 L789.89 363.11 L790.51 368.87 L789.81 380.76 L789.12 383.32 L785.61 387.52 L784.25 389.89 L783.65 392.64 L783.17 409.48 L783.55 411.76 L784.25 413.03 L785.00 413.54 L785.61 414.24 L786.27 418.98 L787.11 422.61 L788.02 423.24 L788.63 424.03 L788.20 426.20 L787.29 427.43 L786.11 427.99 L784.99 428.36 L783.10 429.91 L783.00 431.82 L785.39 434.02 L787.11 435.94 L788.92 438.14 L791.22 438.53 L794.13 436.26 L801.34 428.41 L802.72 426.11 L804.59 427.59 L805.01 429.98 L805.81 432.47 L806.40 435.24 L804.63 438.00 L800.55 446.09 L800.23 449.71 L799.02 459.25 L796.08 467.54 L796.24 472.72 L793.23 481.73 L791.02 486.10 L790.05 488.29 L791.00 490.78 L792.04 492.02 L792.80 493.37 L792.37 496.40 L792.13 500.00 L791.36 505.40 L790.21 507.69 L788.34 510.21 L786.63 511.14 L785.88 508.69 L785.21 505.49 L783.75 503.09 L782.17 502.68 L781.23 505.40 L782.78 505.76 L783.70 506.93 L784.14 508.65 L784.25 510.63 L783.75 512.50 L782.58 512.94 L781.28 513.06 L780.38 513.96 L780.54 514.96 L780.69 517.55 L781.15 520.22 L780.10 521.94 L779.13 523.65 L780.08 524.99 L780.84 525.75 L780.68 527.65 L778.35 528.41 L776.16 529.74 L773.00 532.88 L770.34 532.78 L769.76 534.77 L769.56 537.34 L768.89 538.68 L768.13 539.82 L768.77 541.72 L768.81 542.50 L767.52 545.11 L765.72 548.97 L763.70 551.41 L762.61 553.69 L761.85 555.24 L760.10 555.21 L758.80 555.15 L757.21 555.41 L756.03 555.34 L754.80 555.90 L753.45 556.06 L753.34 558.02 L754.24 559.38 L754.39 561.00 L753.81 562.86 L751.27 564.05 L749.22 562.25 L747.97 561.22 L747.05 560.07 L744.08 563.28 L742.72 565.83 L742.29 568.55 L741.37 569.20 L740.82 567.83 L739.47 566.36 L739.58 567.67 L739.85 570.50 L738.99 570.50 L738.61 569.56 L738.12 569.34 L736.96 570.13 L735.85 570.82 L735.10 569.89 L734.18 566.75 L734.56 563.92 L735.42 560.33 L735.59 558.32 L735.05 557.83 L734.02 559.36 L730.56 565.50 L728.99 565.61 L728.88 562.78 L728.99 560.12 L728.23 560.01 L727.25 562.21 L726.45 565.55 L723.64 565.23 L716.17 565.35 L715.74 562.79 L714.98 561.43 L713.95 565.30 L712.82 565.84 L710.18 564.65 L708.94 562.32 L707.58 562.16 L705.84 563.51 L705.84 557.42 L705.37 556.91 L704.40 557.32 L703.58 558.60 L703.51 560.75 L701.71 559.33 L700.31 557.29 L698.76 556.03 L696.48 556.95 L696.98 554.98 L696.04 552.19 L696.48 551.15 L695.35 547.49 L694.68 547.10 L693.38 548.29 L691.97 550.53 L691.94 552.02 L693.38 555.04 L694.18 558.72 L694.65 560.01 L695.62 561.69 L697.51 564.26 L697.79 565.55 L697.26 567.41 L698.15 567.53 L699.55 568.14 L700.36 568.36 L699.36 569.03 L698.36 569.29 L696.07 569.30 L694.86 569.02 L694.52 568.28 L694.46 567.35 L694.08 566.45 L692.99 565.30 L692.22 564.66 L686.10 562.49 L684.38 562.38 L680.63 563.10 L679.60 563.61 L679.68 564.59 L680.99 566.45 L678.88 566.88 L675.00 568.85 L670.54 570.08 L669.96 571.84 L669.74 573.76 L668.53 575.01 L668.53 575.96 L679.84 569.91 L681.76 569.78 L682.15 572.22 L682.83 574.02 L683.06 575.62 L682.15 577.47 L680.70 578.29 L678.49 578.66 L676.27 578.56 L674.80 577.95 L674.04 579.31 L674.56 579.97 L675.59 580.57 L676.35 581.76 L676.46 582.48 L676.50 583.53 L676.35 586.43 L675.50 592.13 L676.55 593.14 L677.54 592.80 L678.33 591.69 L678.68 590.32 L680.21 592.13 L678.63 594.99 L675.77 598.75 L673.23 599.52 L669.83 599.29 L669.88 597.16 L672.07 597.13 L673.00 596.96 L673.57 596.03 L666.52 595.23 L665.06 594.64 L663.43 592.36 L663.20 591.21 L664.37 590.48 L666.98 589.46 L664.40 584.24 L662.55 586.09 L660.68 589.72 L658.05 589.89 L655.65 586.63 L654.40 585.82 L651.82 585.56 L650.69 586.25 L650.06 587.93 L649.83 590.07 L649.89 592.13 L647.49 591.72 L642.22 591.96 L640.14 590.79 L639.90 590.04 L639.87 588.00 L639.75 587.46 L639.23 587.33 L637.96 587.56 L636.33 587.18 L633.66 586.95 L632.72 586.43 L632.19 585.31 L632.25 584.22 L632.54 583.17 L632.72 582.24 L632.54 571.91 L632.72 570.25 L633.05 569.48 L633.63 568.46 L634.13 567.12 L634.27 565.42 L632.50 567.55 L631.04 570.05 L629.24 571.92 L626.52 572.16 L628.60 577.09 L627.18 578.05 L624.11 577.98 L621.18 579.85 L619.98 576.51 L619.26 575.14 L617.99 574.15 L617.66 578.64 L616.44 582.19 L614.07 584.33 L611.04 584.60 L609.83 584.12 L608.75 583.85 L607.86 583.95 L607.17 584.60 L605.48 583.20 L604.30 582.88 L603.55 582.67 L598.95 582.71 L597.42 582.45 L596.81 581.74 L596.53 580.68 L595.87 579.33 L594.57 578.29 L594.26 579.36 L594.46 581.03 L594.71 581.76 L593.89 584.33 L593.43 585.21 L592.38 586.43 L588.09 589.89 L585.71 590.96 L584.00 589.48 L581.86 585.08 L580.09 584.37 L578.85 586.15 L578.24 588.94 L578.37 591.27 L579.42 593.73 L581.18 596.92 L583.19 599.69 L584.99 600.86 L586.26 602.53 L587.45 603.11 L588.87 602.21 L592.38 598.88 L594.82 598.55 L596.89 598.96 L598.83 599.08 L600.96 597.93 L600.84 600.68 L600.47 602.63 L599.34 606.57 L598.04 613.53 L597.10 615.14 L593.11 616.48 L589.95 614.89 L587.43 614.34 L585.35 618.94 L584.69 618.50 L584.52 618.54 L584.36 618.80 L583.80 618.94 L584.69 620.78 L585.35 622.74 L586.18 628.97 L585.66 630.12 L584.49 629.47 L582.64 627.49 L579.92 627.15 L577.90 626.02 L576.60 623.97 L576.05 620.85 L576.74 617.90 L578.22 615.00 L579.29 612.26 L578.76 609.90 L577.85 608.59 L576.05 604.67 L575.58 604.36 L574.94 604.34 L574.28 604.24 L573.72 603.64 L573.67 602.93 L573.86 602.09 L574.19 601.55 L572.48 597.90 L572.18 596.54 L572.28 595.72 L572.78 594.36 L572.89 593.65 L572.64 592.86 L572.12 592.25 L571.59 592.08 L571.34 592.65 L570.95 592.97 L569.01 597.93 L568.27 598.99 L567.88 599.26 L567.30 599.33 L563.43 600.70 L561.18 600.99 L556.28 600.86 L554.43 601.42 L555.93 602.66 L558.85 603.95 L561.26 604.67 L561.26 605.54 L556.45 607.10 L554.01 608.48 L553.59 610.38 L554.56 611.18 L556.69 610.31 L557.83 610.80 L558.63 612.13 L558.39 612.62 L557.78 612.78 L557.47 613.15 L559.05 618.70 L562.32 621.67 L565.87 623.97 L568.29 627.49 L567.13 627.31 L565.14 627.30 L564.29 627.49 L569.16 629.39 L569.79 630.93 L570.11 633.84 L569.08 634.89 L567.91 635.89 L565.69 635.79 L564.29 636.14 L559.13 632.89 L557.47 632.35 L556.00 632.63 L554.18 633.48 L552.62 634.60 L551.97 635.67 L552.24 636.11 L553.59 639.00 L555.18 639.35 L556.14 640.00 L560.45 638.86 L562.81 640.89 L557.43 645.89 L555.52 648.64 L553.45 647.68 L550.18 650.19 L550.52 652.62 L551.97 654.22 L548.83 654.24 L544.20 648.03 L542.60 644.70 L538.35 640.04 L537.05 640.34 L532.55 642.72 L533.00 644.15 L533.33 644.70 L531.48 644.06 L529.70 643.70 L528.18 642.89 L527.13 640.89 L526.99 638.85 L527.71 637.66 L530.23 636.14 L531.04 635.41 L533.33 632.35 L534.74 629.34 L535.55 628.31 L537.20 627.49 L537.09 629.82 L536.54 632.07 L534.88 636.14 L538.20 635.92 L540.98 634.90 L542.64 632.57 L542.60 628.46 L541.94 626.85 L541.06 625.93 L540.39 624.85 L540.29 622.74 L540.90 621.64 L544.16 617.98 L545.34 618.61 L546.12 619.46 L546.31 620.55 L545.71 621.88 L546.40 623.69 L547.36 624.96 L548.67 625.40 L550.42 624.73 L551.16 623.76 L552.71 620.40 L553.59 618.94 L552.02 616.57 L551.41 614.09 L550.60 612.96 L548.45 614.66 L545.98 615.72 L543.93 613.99 L541.13 609.43 L539.53 611.98 L537.24 617.92 L535.65 619.89 L534.02 620.55 L532.64 620.48 L529.79 619.89 L528.45 620.36 L527.21 621.52 L525.16 624.26 L524.25 625.04 L520.09 627.49 L517.85 629.22 L516.41 630.07 L515.03 630.44 L514.17 630.89 L513.98 632.04 L514.03 633.58 L513.82 635.20 L513.07 636.35 L512.02 637.59 L511.49 639.08 L512.34 640.89 L506.08 647.13 L506.29 652.89 L505.23 653.85 L502.21 652.32 L501.21 653.53 L500.74 654.90 L500.80 656.40 L501.43 658.02 L499.97 657.55 L496.79 655.26 L492.44 653.96 L491.44 653.35 L490.55 650.68 L491.02 643.63 L490.59 640.89 L491.22 639.15 L491.08 637.01 L490.33 635.13 L489.04 634.15 L487.81 634.51 L486.58 635.69 L485.62 637.20 L485.25 638.52 L485.71 640.45 L486.43 642.13 L486.46 643.30 L482.97 644.49 L483.42 646.19 L485.96 649.46 L481.61 652.01 L479.98 653.54 L481.67 654.22 L482.05 654.53 L482.16 655.21 L482.03 655.89 L481.67 656.20 L480.97 656.06 L479.92 655.41 L479.37 655.26 L477.87 655.48 L477.57 656.12 L477.55 657.16 L476.97 658.54 L476.08 659.15 L472.72 660.01 L471.46 661.09 L471.01 661.99 L468.25 671.40 L468.02 672.75 L468.02 674.36 L465.25 673.76 L460.02 675.51 L458.71 675.23 L458.56 673.59 L459.63 670.24 L459.42 668.66 L458.38 667.76 L456.95 667.47 L453.99 667.62 L453.99 666.75 L454.59 665.95 L454.78 665.39 L455.00 663.20 L455.39 663.13 L455.90 663.30 L456.39 662.96 L457.99 660.00 L458.30 658.57 L457.86 657.15 L457.30 656.70 L456.47 656.40 L454.78 656.20 L453.56 655.86 L453.40 655.10 L453.73 654.42 L453.99 654.22 L454.03 652.43 L454.46 650.72 L454.26 649.80 L452.44 650.41 L452.94 647.05 L455.20 645.36 L458.22 644.77 L461.04 644.70 L460.52 643.63 L459.82 642.80 L458.94 642.22 L457.86 641.85 L459.66 640.58 L460.76 639.09 L460.80 637.79 L459.42 637.01 L458.91 637.21 L457.88 638.51 L457.16 639.00 L456.22 638.99 L454.75 638.07 L453.99 638.05 L453.30 638.68 L452.83 639.63 L452.44 640.89 L451.43 641.12 L450.46 641.09 L449.36 640.89 L446.93 640.94 L445.60 641.18 L443.93 641.85 L443.72 639.63 L442.75 638.35 L440.05 637.01 L440.09 636.57 L439.53 635.45 L438.84 634.77 L438.50 635.67 L438.17 636.20 L437.37 636.67 L436.45 636.86 L435.73 636.57 L433.38 634.30 L433.09 634.15 L432.70 632.75 L432.89 632.35 L433.35 632.16 L433.80 631.39 L434.25 632.04 L435.38 632.06 L436.21 631.39 L435.73 629.96 L432.70 628.46 L430.35 626.71 L430.15 622.70 L431.14 618.24 L432.33 615.14 L432.45 614.08 L432.36 612.79 L432.52 611.70 L433.45 611.25 L434.29 611.33 L435.18 611.59 L435.85 612.05 L436.59 613.71 L440.05 618.94 L438.97 620.38 L438.64 621.78 L438.84 623.20 L439.20 624.73 L441.55 631.39 L442.96 632.25 L448.58 633.20 L450.99 634.88 L452.29 634.77 L453.21 632.35 L451.94 632.54 L451.27 632.20 L448.93 631.68 L447.83 629.94 L446.39 628.48 L446.79 625.28 L445.29 625.56 L444.57 627.53 L443.39 627.64 L442.68 625.04 L442.33 621.56 L443.19 619.58 L442.54 617.14 L445.64 616.83 L450.39 617.88 L451.01 618.99 L450.71 620.80 L450.74 621.37 L450.69 621.90 L450.96 622.74 L452.14 623.52 L452.83 624.46 L454.31 625.43 L456.34 626.25 L457.57 627.45 L459.15 628.60 L460.35 629.40 L460.85 628.79 L458.47 625.61 L459.88 625.30 L461.98 626.52 L464.68 628.02 L467.95 629.07 L470.32 628.46 L467.93 628.05 L466.00 626.81 L462.59 623.78 L463.42 622.74 L460.97 620.93 L457.26 616.12 L455.20 615.14 L452.37 614.56 L449.02 614.78 L446.71 613.26 L443.85 614.05 L441.23 613.17 L440.88 611.85 L442.50 609.80 L444.09 609.14 L447.47 609.67 L451.78 607.73 L456.97 611.59 L458.71 611.25 L459.16 611.55 L459.43 611.84 L459.74 612.08 L460.26 612.28 L459.77 609.60 L459.99 607.15 L461.34 605.36 L464.12 604.67 L469.32 606.24 L471.98 606.43 L471.17 604.67 L472.93 603.78 L473.87 603.58 L475.05 603.64 L473.36 601.68 L470.78 601.20 L464.90 601.74 L465.34 600.39 L465.19 599.47 L464.90 598.52 L464.90 597.06 L465.31 596.15 L465.91 595.47 L466.41 594.62 L466.45 593.17 L465.53 591.11 L463.97 590.64 L462.29 591.44 L461.04 593.17 L460.90 594.33 L461.65 596.67 L461.81 597.93 L461.62 598.12 L460.26 600.86 L458.99 605.61 L457.81 607.23 L455.56 607.44 L455.56 607.11 L454.85 606.57 L455.31 605.83 L455.92 604.38 L456.39 603.64 L454.85 602.85 L453.81 603.31 L452.82 604.20 L451.32 604.67 L448.30 603.99 L447.34 604.44 L447.15 605.88 L445.60 605.86 L443.15 606.67 L441.96 606.06 L441.58 604.58 L442.39 603.20 L444.70 600.86 L445.54 599.58 L446.02 598.57 L446.21 597.63 L446.26 596.54 L445.95 594.46 L446.34 593.44 L447.81 592.13 L446.39 591.01 L445.16 588.68 L444.48 585.95 L444.70 583.66 L446.28 582.20 L448.42 580.72 L449.09 579.50 L446.26 578.82 L444.96 579.06 L444.21 579.72 L443.60 580.41 L442.74 580.72 L441.63 581.29 L441.80 582.65 L442.35 584.25 L442.39 585.56 L440.80 587.01 L438.75 587.16 L436.77 586.50 L435.35 585.56 L436.43 584.81 L436.90 584.60 L435.90 583.88 L435.05 583.02 L434.35 581.98 L433.80 580.72 L435.10 580.05 L436.37 580.12 L439.20 580.72 L438.86 577.73 L442.03 574.56 L441.19 571.64 L437.96 567.13 L435.97 565.30 L433.80 564.55 L434.69 567.68 L433.91 569.47 L432.30 569.53 L430.70 567.41 L431.76 565.92 L428.84 562.02 L428.43 559.71 L430.07 557.80 L432.38 557.49 L434.44 558.55 L435.35 560.75 L436.79 559.82 L437.59 558.22 L438.50 555.04 L439.31 556.62 L439.45 557.96 L439.15 560.54 L438.64 561.84 L438.50 562.64 L438.72 563.47 L439.18 563.47 L439.70 563.27 L440.05 563.51 L440.51 565.35 L440.62 566.14 L441.03 566.59 L442.39 567.41 L443.49 567.80 L445.40 567.87 L446.26 568.36 L445.60 569.95 L445.78 571.48 L446.60 572.90 L447.81 574.15 L450.67 567.63 L450.96 565.42 L450.91 562.93 L450.35 562.04 L448.22 561.51 L447.32 561.00 L446.57 560.23 L445.41 557.10 L441.69 552.73 L440.83 550.72 L441.08 550.04 L441.60 549.47 L442.14 548.71 L442.39 547.42 L441.19 546.57 L440.61 545.47 L440.83 543.54 L439.37 544.12 L437.87 544.36 L434.64 544.40 L435.90 542.83 L437.98 542.35 L440.33 542.22 L442.39 541.72 L441.71 541.46 L441.35 541.14 L440.94 540.86 L440.05 540.69 L440.61 539.43 L441.27 538.69 L442.00 538.12 L442.74 537.32 L443.13 536.26 L442.94 535.35 L442.58 534.47 L442.39 533.51 L442.78 531.34 L443.76 529.19 L446.26 525.38 L446.92 526.07 L448.58 528.24 L450.58 528.85 L451.60 528.78 L451.32 527.76 L447.58 523.50 L447.03 522.01 L447.86 518.72 L449.81 514.64 L452.88 507.46 L455.47 503.72 L459.17 502.39 L463.39 501.53 L466.99 501.33 L468.65 500.00 L470.25 497.69 L472.51 497.11 L474.53 499.38 L476.61 501.95 L478.13 502.46 L476.65 497.26 L475.60 494.89 L473.89 493.91 L457.80 496.54 L452.19 493.04 L452.53 489.30 L452.63 487.80 L455.28 486.48 L457.60 484.19 L459.74 481.73 L463.15 479.75 L467.32 477.45 L470.49 473.03 L470.98 468.87 L472.72 467.84 L474.01 467.03 L474.69 466.43 L478.76 466.02 L482.74 466.51 L485.26 468.46 L487.07 468.91 L488.28 471.00 L488.75 469.86 L489.14 468.29 L489.31 466.65 L487.79 465.44 L486.75 464.68 L484.58 463.61 L482.12 461.94 L480.12 460.44 L479.06 459.91 L479.37 458.71 L480.31 457.41 L481.25 456.64 L482.28 456.41 L488.61 456.81 L490.00 456.70 L491.02 456.17 L491.72 454.91 L491.97 453.89 L492.52 453.18 L494.08 452.91 L494.58 452.46 L493.99 451.44 L492.78 450.39 L491.44 449.90 L491.08 450.18 L482.75 453.54 L479.95 453.67 L474.46 453.32 L469.04 452.89 L468.99 450.49 L468.64 447.19 L467.60 446.28 L464.21 445.12 L459.22 445.90 L458.73 441.70 L469.01 440.60 L474.60 439.91 L480.25 439.58 L482.08 438.48 L484.03 439.05 L486.41 437.84 L490.59 434.68 L495.90 432.57 L498.14 430.98 L498.34 428.96 L491.70 431.00 L489.36 431.72 L487.07 433.29 L485.15 435.13 L483.03 436.14 L480.50 436.57 L478.13 437.61 L476.41 436.77 L475.82 435.80 L475.64 434.52 L475.05 432.77 L474.11 431.26 L472.20 428.76 L471.17 427.07 L472.75 425.80 L472.01 424.92 L470.46 424.28 L469.04 423.80 L466.45 419.37 L464.45 418.51 L462.95 419.38 L462.23 419.37 L462.17 417.84 L459.61 416.21 L457.40 416.56 L456.71 419.18 L456.33 420.08 L455.56 419.37 L456.01 415.30 L459.86 413.36 L463.26 412.30 L468.02 413.66 L466.34 410.90 L465.39 409.82 L464.12 408.90 L463.37 408.73 L462.46 409.25 L461.81 408.90 L460.97 407.98 L460.26 407.00 L462.65 400.50 L464.01 397.64 L465.67 396.55 L464.42 395.02 L459.60 393.56 L457.86 392.65 L459.57 391.08 L464.62 389.87 L465.67 388.42 L464.94 386.57 L463.15 386.10 L459.42 386.08 L458.64 385.55 L457.30 383.93 L456.39 383.13 L456.39 382.19 L457.86 382.19 L456.17 379.07 L458.22 377.94 L460.56 377.24 L462.74 374.09 L467.41 372.81 L469.62 371.64 L463.01 371.64 L461.41 372.54 L458.96 376.14 L457.16 376.48 L456.04 375.13 L455.00 372.56 L454.35 369.92 L454.42 368.36 L456.79 365.62 L457.88 363.93 L457.52 363.17 L455.35 363.95 L454.37 363.03 L453.48 362.45 L452.94 362.34 L452.41 361.06 L452.91 359.89 L452.81 358.62 L452.24 356.22 L451.55 355.21 L451.50 354.62 L453.07 354.53 L455.33 353.49 L457.70 353.56 L457.88 351.87 L458.56 350.36 L457.63 349.15 L456.29 348.88 L454.47 347.10 L455.62 345.47 L457.21 344.20 L456.14 342.27 L453.42 341.77 L452.87 339.44 L453.74 337.73 L456.39 337.31 L454.87 335.60 L454.34 334.74 L453.99 333.51 L453.04 334.31 L451.43 336.04 L449.63 336.80 L449.27 337.79 L449.34 338.77 L450.14 339.98 L450.28 342.34 L449.44 345.06 L449.94 348.70 L448.74 351.82 L447.71 353.09 L445.61 351.47 L443.42 351.38 L441.24 349.96 L441.79 342.44 L442.46 339.72 L441.16 339.11 L441.55 335.58 L440.33 334.14 L438.50 334.45 L437.48 336.27 L437.20 338.49 L436.38 340.13 L433.80 340.17 L434.86 342.31 L436.93 345.57 L437.67 347.86 L436.43 348.91 L436.59 350.06 L438.50 352.61 L436.77 352.95 L435.30 353.78 L434.07 354.97 L433.09 356.42 L433.10 355.40 L432.98 354.36 L432.72 353.42 L432.33 352.61 L433.89 349.21 L430.56 343.82 L431.55 341.11 L430.70 337.31 L428.60 338.47 L425.60 342.21 L423.39 343.02 L422.09 343.27 L420.92 343.73 L419.76 343.81 L418.38 343.02 L418.05 342.37 L417.58 341.07 L417.41 339.79 L417.96 339.21 L422.64 339.26 L423.83 338.46 L423.80 336.36 L422.58 334.17 L420.84 333.32 L419.01 332.80 L417.54 331.61 L416.96 333.27 L416.63 336.74 L415.99 338.35 L414.67 339.54 L414.22 338.42 L414.36 334.93 L414.14 331.54 L414.45 330.60 L417.36 326.96 L417.93 325.69 L418.38 323.91 L418.74 325.26 L419.23 326.47 L419.84 327.62 L420.63 328.75 L421.23 328.19 L421.97 328.25 L422.83 328.55 L423.80 328.75 L422.61 327.09 L421.40 324.95 L424.63 325.90 L425.96 325.56 L426.82 323.91 L423.92 323.71 L422.14 322.91 L421.93 321.18 L423.80 318.21 L421.24 316.12 L421.40 314.18 L423.36 312.61 L426.13 311.63 L425.41 315.03 L425.68 315.97 L427.24 316.30 L430.06 316.25 L430.82 315.74 L431.55 314.48 L431.76 311.35 L431.47 307.14 L432.00 303.70 L434.64 302.90 L434.29 304.82 L434.38 307.83 L434.88 310.88 L436.29 314.55 L435.60 315.84 L434.49 317.00 L433.80 318.21 L433.83 319.49 L434.54 321.54 L434.64 322.10 L434.02 322.75 L431.98 324.07 L431.55 324.43 L431.66 325.63 L432.03 326.90 L432.63 327.64 L433.45 327.28 L435.36 325.54 L436.79 325.50 L440.05 327.71 L437.71 322.71 L436.88 319.60 L438.09 318.21 L439.92 320.51 L441.03 321.22 L441.55 319.71 L442.03 319.24 L443.21 318.77 L445.48 318.21 L445.48 317.34 L444.58 317.20 L442.39 316.30 L442.39 315.43 L445.12 314.81 L446.73 312.24 L447.14 309.11 L446.26 306.80 L445.27 306.47 L442.30 306.42 L440.83 305.84 L439.73 304.52 L439.37 303.23 L439.92 302.78 L441.55 303.94 L442.30 301.78 L441.49 300.50 L439.75 299.98 L437.67 300.13 L438.51 299.06 L439.64 298.29 L440.86 298.08 L441.96 298.70 L443.04 299.52 L443.99 299.70 L444.43 299.27 L443.93 298.23 L443.93 297.19 L448.11 297.12 L450.11 297.81 L450.96 299.65 L450.39 300.79 L449.30 302.00 L448.64 303.58 L449.36 305.84 L450.35 304.86 L451.64 304.17 L452.74 304.19 L453.21 305.36 L453.34 306.34 L453.87 307.22 L453.99 308.17 L453.79 308.54 L452.76 309.74 L452.44 310.60 L452.44 316.82 L452.82 318.63 L453.65 319.89 L454.48 320.37 L454.85 319.71 L455.31 316.25 L457.38 309.59 L457.86 306.31 L458.47 305.54 L459.85 306.46 L461.81 308.60 L462.62 310.11 L463.20 311.51 L464.06 312.42 L465.67 312.49 L465.67 311.63 L464.86 310.57 L463.87 307.73 L463.01 306.31 L456.06 299.09 L455.56 298.70 L455.95 297.20 L456.91 297.37 L458.08 298.45 L459.89 300.67 L460.85 301.51 L462.01 302.03 L463.42 302.03 L464.48 301.42 L464.58 300.46 L463.81 299.57 L462.20 299.18 L460.04 298.16 L457.69 296.00 L456.64 292.78 L456.39 290.62 L458.46 290.57 L460.27 291.42 L461.90 292.82 L464.17 294.42 L466.33 295.89 L467.22 296.78 L468.94 297.93 L470.60 298.83 L471.74 300.73 L471.20 302.61 L470.10 303.89 L470.32 304.89 L471.45 307.01 L471.59 308.31 L471.17 310.60 L472.42 309.75 L472.92 308.72 L473.22 307.56 L472.79 304.14 L473.25 303.01 L473.97 301.82 L475.02 299.88 L476.89 299.02 L478.65 299.01 L480.61 299.25 L482.78 300.04 L485.54 300.76 L487.51 302.03 L489.90 304.45 L490.06 307.43 L488.28 313.45 L489.64 312.56 L491.77 309.86 L492.93 309.65 L493.75 310.79 L494.22 312.84 L494.47 316.82 L494.35 317.67 L493.82 319.57 L493.71 320.67 L493.93 321.81 L494.94 323.48 L495.90 327.81 L495.57 329.06 L493.71 329.62 L494.05 330.79 L494.49 331.59 L495.15 332.13 L496.09 332.56 L496.75 329.43 L497.87 327.57 L498.44 325.59 L497.50 322.10 L499.80 322.75 L502.21 323.05 L498.31 318.80 L497.15 316.46 L499.47 315.43 L501.55 315.09 L506.48 313.14 L510.11 310.42 L511.82 309.62 L513.04 308.26 L513.82 304.89 L513.60 304.28 L512.54 303.19 L512.34 302.90 L512.95 302.34 L513.56 302.27 L514.14 302.29 L515.72 301.43 L516.73 301.28 L517.47 300.79 L517.77 299.18 L510.98 301.05 L509.96 302.47 L510.32 306.78 L509.50 307.75 L506.86 308.60 L503.10 308.09 L498.65 305.53 L494.62 301.64 L493.09 297.92 L499.88 297.19 L499.88 296.32 L499.41 296.10 L498.34 295.29 L499.62 295.13 L500.82 295.20 L501.93 295.57 L502.91 296.32 L502.43 293.67 L500.88 291.30 L499.75 288.59 L500.58 284.92 L499.30 284.35 L498.31 285.64 L497.70 287.86 L497.50 290.10 L496.98 292.53 L495.90 293.09 L494.83 292.04 L492.66 292.48 L490.47 293.03 L485.25 291.49 L485.28 289.91 L484.79 288.52 L485.20 286.65 L484.98 284.26 L486.29 281.89 L487.86 279.78 L489.66 278.93 L491.60 278.21 L494.47 278.16 L497.53 277.35 L498.17 276.42 L498.34 273.84 L497.64 273.33 L496.06 274.18 L493.71 276.18 L492.24 275.89 L491.16 275.26 L490.58 274.16 L490.59 272.46 L487.89 273.81 L485.71 275.34 L481.67 279.64 L480.62 280.45 L479.31 280.91 L478.09 280.87 L477.36 280.16 L477.40 278.88 L478.09 277.63 L479.76 275.32 L476.46 276.07 L475.41 275.74 L475.05 273.84 L475.66 272.43 L477.04 271.63 L478.62 271.10 L479.76 270.47 L481.14 268.63 L480.78 268.15 L477.74 268.57 L476.74 267.96 L475.94 266.46 L475.19 264.59 L474.27 262.86 L474.78 262.72 L475.10 262.50 L475.82 261.83 L476.65 262.45 L477.91 262.38 L480.12 261.83 L481.91 262.32 L483.42 263.23 L484.90 263.70 L486.65 262.86 L486.51 264.41 L486.65 265.92 L487.20 267.09 L488.28 267.62 L489.47 267.16 L490.03 265.85 L490.59 262.86 L492.50 260.06 L494.07 260.27 L495.84 261.32 L498.34 260.97 L497.81 259.83 L497.11 258.98 L496.24 258.42 L495.18 258.11 L493.60 258.17 L492.88 257.10 L491.19 256.80 L489.82 257.23 L488.46 257.15 L486.32 256.73 L482.76 255.63 L477.83 251.97 L477.57 250.36 L479.76 247.23 L481.26 245.76 L480.93 244.81 L474.99 244.07 L472.22 247.52 L469.36 245.38 L470.52 242.85 L472.02 240.64 L471.08 239.08 L469.05 238.00 L467.19 237.04 L467.45 234.49 L467.08 232.49 L468.18 230.62 L471.44 229.67 L472.41 229.18 L472.65 228.02 L471.12 227.61 L470.71 228.83 L468.38 229.07 L467.77 227.68 L467.52 225.13 L468.07 221.76 L467.52 220.54 L466.64 218.48 L465.63 216.86 L464.46 214.91 L463.17 213.68 L463.14 211.80 L462.67 208.99 L461.45 204.60 L459.82 193.15 L460.26 191.27 L461.77 190.99 L468.02 193.17 L470.01 192.75 L471.67 191.99 L473.15 191.71 L474.66 192.69 L475.22 194.34 L475.45 196.91 L475.28 199.54 L474.66 201.34 L474.61 204.61 L478.09 207.45 L482.51 209.26 L485.25 209.42 L483.11 207.27 L476.58 202.68 L478.48 197.74 L479.04 194.78 L478.56 192.69 L477.49 190.51 L477.40 189.32 L477.27 187.73 L477.79 184.93 L478.98 182.71 L478.13 181.67 L477.01 181.82 L475.29 182.96 L474.51 170.98 L475.10 167.66 L476.47 166.70 L478.57 166.47 L481.49 165.39 L486.00 161.90 L495.69 147.55 L497.67 145.60 L502.04 142.32 L503.91 140.23 L506.22 134.71 L507.76 131.02 L509.16 129.30 L509.82 128.48 L516.04 123.53 L523.26 119.15 L530.86 116.18 L538.18 115.41 L541.79 115.78 L555.77 114.60 L566.52 117.75 L569.94 117.45 L576.60 115.50 L598.48 113.65 L599.41 114.26 L600.86 116.28 L602.25 117.65 L603.81 118.03 L611.31 116.51 L623.20 117.18 L630.93 116.59 L638.71 113.91 L645.95 109.39 L651.99 103.28 L654.61 99.66 L656.81 95.80 L658.28 91.50 L658.77 86.56 L657.81 81.79 L657.57 79.36 L658.28 77.56 L661.38 75.20 L667.79 72.00 Z M506.89 788.93 L507.75 790.74 L507.22 791.36 L506.12 791.69 L505.34 792.65 L505.39 793.46 L506.11 794.75 L506.11 795.50 L505.72 796.25 L504.76 797.56 L504.56 797.97 L502.52 800.40 L498.66 803.56 L497.47 806.19 L495.76 809.26 L495.68 810.50 L494.93 812.31 L492.13 812.64 L491.05 813.23 L488.07 812.96 L483.72 816.49 L472.26 818.65 L468.43 822.01 L463.73 823.08 L458.71 822.56 L452.97 823.66 L448.19 822.19 L437.41 822.35 L434.05 823.96 L432.05 827.61 L430.23 828.00 L428.40 827.10 L425.82 822.80 L422.38 821.60 L419.04 818.00 L417.88 813.62 L419.90 807.96 L421.81 804.44 L422.99 803.21 L426.93 800.81 L430.30 794.80 L433.39 793.99 L434.82 790.82 L440.13 788.94 L451.70 785.54 L454.60 782.98 L465.65 781.79 L473.18 778.43 L474.98 778.95 L484.14 777.43 L489.46 776.98 L492.97 777.59 L494.32 779.66 L495.99 781.00 L501.46 783.22 L503.12 784.95 L504.24 789.13 L505.34 790.76 L505.86 790.12 L506.58 789.52 L506.89 788.93 Z M711.29 595.16 L711.16 596.81 L710.66 598.56 L709.66 599.54 L708.12 598.88 L708.75 600.75 L710.21 603.90 L710.52 606.06 L709.65 606.41 L707.67 605.71 L705.53 604.58 L704.24 603.64 L703.89 605.58 L703.54 606.64 L701.58 608.95 L700.94 610.76 L702.29 611.80 L704.15 612.59 L705.09 613.66 L703.32 615.24 L695.11 617.81 L692.63 617.98 L696.51 615.14 L694.90 614.36 L694.29 613.13 L694.39 611.47 L694.96 609.43 L691.44 611.25 L690.40 610.52 L689.89 608.91 L689.96 607.30 L690.67 606.57 L693.49 605.99 L694.29 604.46 L694.35 602.28 L694.96 599.83 L693.41 598.88 L692.25 600.33 L688.18 602.15 L686.38 603.64 L685.08 601.61 L683.47 599.82 L682.15 597.81 L681.80 595.16 L682.53 593.56 L684.02 592.09 L685.75 590.95 L687.22 590.32 L691.47 589.43 L692.63 589.46 L694.50 590.25 L695.98 591.23 L697.51 591.99 L699.61 592.13 L699.61 591.27 L697.51 589.87 L696.31 587.79 L695.77 585.42 L695.65 583.19 L697.15 583.37 L705.09 578.82 L703.73 576.26 L704.37 573.72 L706.12 572.32 L708.12 573.11 L708.62 574.27 L708.65 575.61 L707.92 580.78 L707.97 581.60 L708.50 583.24 L709.19 584.55 L709.69 585.90 L709.66 587.73 L709.21 589.39 L707.42 594.12 L709.71 593.31 L710.81 592.54 L711.18 592.81 L711.29 595.16 Z M442.70 646.78 L442.88 648.69 L442.57 650.84 L441.96 652.91 L439.73 657.76 L438.83 659.24 L437.70 660.01 L437.51 659.58 L435.57 657.72 L434.67 657.15 L434.67 658.02 L434.21 660.26 L423.41 666.23 L422.11 666.69 L417.34 667.09 L416.02 666.75 L415.77 665.54 L416.41 664.52 L417.25 663.67 L417.57 662.96 L416.96 662.09 L413.70 660.01 L413.70 662.96 L411.32 660.10 L412.73 655.45 L415.96 651.69 L419.12 651.45 L420.15 648.44 L420.81 647.37 L421.86 646.18 L423.08 645.50 L424.16 645.31 L424.98 644.69 L425.30 642.72 L426.63 644.37 L428.43 644.56 L430.03 643.49 L430.72 641.37 L429.86 639.63 L426.94 637.30 L427.70 636.14 L429.53 636.01 L431.41 637.04 L433.03 638.35 L434.24 639.00 L434.52 639.39 L434.85 640.27 L435.39 641.23 L436.15 641.85 L436.67 641.68 L439.23 640.04 L439.33 641.24 L442.70 646.78 Z M634.30 602.68 L634.88 604.26 L634.55 605.65 L633.92 607.13 L633.59 608.95 L633.90 611.83 L633.81 613.47 L633.16 614.18 L632.26 614.70 L633.22 617.53 L632.75 618.94 L631.00 619.27 L629.34 618.26 L627.55 617.47 L625.45 618.46 L623.60 618.71 L622.48 616.01 L621.20 610.38 L619.34 609.36 L617.85 610.40 L616.85 612.74 L616.47 615.65 L615.78 616.88 L614.17 616.93 L612.47 616.34 L611.44 615.65 L610.74 614.40 L610.57 613.37 L610.54 612.15 L610.29 610.38 L607.17 600.09 L606.75 597.61 L607.06 595.16 L608.36 592.65 L609.22 592.01 L610.11 591.85 L610.79 591.38 L611.33 588.31 L611.99 587.43 L613.81 585.99 L615.31 585.26 L617.02 585.80 L618.53 587.15 L619.40 588.89 L619.25 590.72 L618.25 592.47 L615.70 595.16 L616.16 596.12 L616.69 598.56 L617.33 599.83 L618.30 600.51 L620.72 601.33 L622.09 603.80 L624.29 603.41 L627.07 602.30 L629.70 601.74 L633.52 602.38 L634.30 602.68 Z M457.19 215.14 L456.32 215.23 L455.64 214.93 L454.45 213.67 L453.59 213.16 L452.98 213.37 L452.51 213.84 L452.08 214.10 L446.12 214.42 L443.90 213.41 L441.58 210.37 L445.06 209.48 L445.90 208.95 L446.86 207.48 L446.73 206.80 L446.09 206.38 L445.51 205.62 L441.47 198.11 L441.22 196.97 L441.63 195.48 L441.52 188.88 L441.99 187.38 L443.09 186.97 L445.77 183.95 L447.83 183.43 L449.64 184.70 L451.35 186.67 L453.07 188.20 L456.71 189.98 L458.16 191.40 L458.74 193.64 L458.61 194.76 L458.02 196.65 L457.89 197.49 L458.15 198.43 L459.20 200.31 L459.44 201.34 L459.81 206.36 L459.44 207.52 L460.07 208.27 L460.71 209.76 L461.07 210.37 L459.60 211.23 L458.33 214.17 L457.19 215.14 Z M463.48 226.62 L463.93 227.07 L464.37 227.75 L464.97 228.30 L465.44 229.24 L465.72 229.97 L465.11 230.22 L464.15 230.92 L463.76 231.42 L461.78 231.89 L460.90 231.74 L459.70 232.30 L457.05 233.43 L455.62 234.68 L454.83 236.04 L449.89 239.69 L448.77 239.44 L447.73 239.56 L447.28 239.45 L446.81 237.75 L445.91 237.19 L445.50 237.63 L445.13 237.76 L445.00 237.47 L445.19 236.98 L444.91 236.30 L444.22 236.22 L443.76 236.81 L443.06 237.34 L442.21 236.97 L440.99 236.67 L441.71 235.97 L441.46 235.22 L440.22 234.06 L439.92 233.34 L440.35 232.30 L441.03 232.10 L441.97 232.58 L447.11 229.07 L450.78 228.68 L453.29 228.73 L455.59 227.55 L456.38 224.43 L457.99 223.85 L459.30 225.14 L459.93 225.38 L460.59 225.74 L461.23 226.00 L461.87 226.04 L462.55 226.17 L463.48 226.62 Z M445.58 373.68 L446.43 376.25 L447.96 378.59 L448.61 380.76 L447.53 380.27 L442.49 380.55 L440.86 380.29 L440.55 378.20 L441.09 377.46 L441.97 376.67 L442.43 375.44 L439.72 377.13 L438.46 376.52 L438.81 374.44 L440.86 371.64 L440.08 370.78 L438.53 372.59 L438.01 371.34 L436.82 371.97 L437.43 368.62 L437.00 363.52 L436.48 360.44 L435.30 356.55 L436.28 355.28 L438.29 353.43 L440.46 352.71 L441.96 355.09 L442.17 355.95 L441.67 356.97 L440.81 357.65 L440.91 358.61 L442.82 362.89 L443.13 364.25 L442.63 365.38 L443.21 366.38 L444.50 367.13 L445.51 368.87 L443.13 368.87 L443.13 369.73 L443.90 369.89 L445.51 370.78 L445.38 371.65 L445.27 372.34 L445.58 373.68 Z M486.23 673.14 L486.46 674.00 L487.09 675.55 L486.70 675.92 L486.15 675.85 L485.60 675.69 L484.58 675.24 L483.71 674.67 L483.23 674.76 L483.12 675.58 L482.58 675.90 L481.58 675.44 L479.87 675.03 L477.73 674.27 L477.72 673.37 L478.77 672.55 L478.49 671.53 L477.51 671.26 L476.33 671.57 L474.85 671.16 L473.53 670.27 L472.73 669.25 L472.40 667.74 L472.29 666.02 L472.38 664.26 L472.83 662.50 L473.73 661.16 L474.95 660.56 L475.60 660.41 L477.60 660.21 L478.90 660.64 L480.12 661.48 L481.46 663.10 L482.51 665.78 L482.83 667.99 L483.19 669.01 L483.81 669.86 L484.16 671.05 L486.23 673.14 Z M955.68 222.24 L957.62 223.67 L957.48 227.21 L956.22 231.15 L954.90 233.77 L952.74 234.83 L949.85 234.28 L947.05 232.63 L945.18 230.44 L944.59 227.60 L945.55 225.48 L947.59 224.15 L951.63 223.49 L954.32 222.52 L955.68 222.24 Z M532.63 648.83 L536.17 648.40 L538.02 648.55 L539.57 649.31 L540.80 651.57 L540.43 654.16 L538.94 656.28 L536.84 657.15 L532.16 658.02 L530.36 657.76 L529.03 657.11 L526.31 655.26 L526.31 654.22 L526.93 653.44 L527.04 652.80 L526.60 652.17 L525.54 651.45 L527.11 650.27 L528.92 649.53 L532.63 648.83 Z M601.69 620.85 L602.87 621.16 L603.91 622.81 L604.72 624.85 L605.68 628.34 L605.78 630.38 L605.44 632.36 L604.62 634.27 L603.48 635.45 L602.21 635.55 L600.94 634.86 L596.92 630.72 L596.45 629.11 L597.13 626.55 L597.63 625.88 L599.76 624.26 L600.13 623.42 L600.99 619.89 L599.28 618.04 L599.48 616.91 L600.72 616.33 L602.13 616.17 L603.35 616.72 L603.65 618.03 L603.07 619.56 L601.69 620.85 Z M255.89 161.70 L257.13 163.20 L256.95 165.24 L255.38 166.36 L253.17 165.07 L250.28 165.31 L249.68 165.59 L249.73 167.05 L250.84 167.59 L252.17 167.82 L252.79 168.35 L250.47 170.12 L245.84 169.49 L242.38 166.63 L243.57 161.70 L246.45 162.70 L252.74 160.55 L255.89 161.70 Z M634.66 598.48 L635.12 598.85 L635.75 599.81 L634.55 600.11 L629.42 598.75 L626.61 599.66 L624.97 599.46 L623.28 598.42 L622.28 596.44 L623.06 594.29 L624.61 592.27 L625.60 590.36 L626.63 589.02 L628.43 588.53 L629.01 590.07 L628.22 592.32 L627.82 593.86 L627.93 595.14 L628.53 595.55 L629.19 594.04 L630.52 591.91 L631.61 591.72 L631.95 592.70 L632.53 593.25 L633.09 593.57 L633.35 595.24 L633.99 597.56 L634.66 598.48 Z M433.09 186.49 L435.32 186.46 L437.40 186.78 L438.45 187.93 L437.70 190.40 L435.69 192.09 L433.20 192.25 L428.47 191.27 L427.43 191.66 L426.16 192.32 L425.06 192.35 L424.60 190.83 L424.85 190.36 L426.16 186.52 L427.55 185.20 L429.15 184.78 L430.96 185.23 L433.09 186.49 Z M412.15 569.78 L411.54 569.93 L408.52 569.12 L407.44 569.30 L407.02 568.99 L406.75 568.68 L406.45 568.44 L405.95 568.36 L406.84 563.94 L407.44 562.64 L408.22 562.19 L409.57 561.74 L410.82 561.13 L411.37 560.23 L412.23 558.34 L414.28 557.00 L416.60 556.44 L418.34 556.91 L414.89 558.94 L414.09 560.11 L414.00 561.51 L414.50 562.94 L416.02 565.42 L414.80 565.93 L413.53 567.18 L412.56 568.64 L412.15 569.78 Z M438.24 595.84 L440.39 596.61 L440.62 599.56 L438.39 601.63 L437.17 601.17 L437.89 600.35 L438.25 599.55 L437.96 598.99 L434.79 597.23 L434.32 596.98 L430.97 597.53 L429.49 598.27 L427.81 598.54 L426.46 598.07 L425.77 597.17 L426.38 596.43 L428.18 596.32 L430.48 595.47 L430.89 594.94 L431.26 594.56 L431.37 593.97 L432.79 593.53 L433.30 592.66 L433.35 591.64 L432.47 590.41 L432.09 589.04 L433.33 588.39 L435.29 588.87 L437.31 589.90 L438.75 591.36 L438.60 592.18 L437.62 592.31 L435.89 593.47 L435.68 594.12 L435.74 594.94 L435.90 595.59 L436.63 595.82 L438.24 595.84 Z M486.07 662.86 L485.51 662.82 L485.02 662.31 L485.43 661.48 L485.96 660.67 L486.74 658.91 L488.34 656.77 L490.58 655.51 L492.93 654.94 L494.35 655.19 L494.88 656.02 L494.97 656.94 L494.38 657.56 L494.47 657.89 L495.53 658.55 L496.39 659.53 L497.15 660.65 L497.25 661.50 L496.42 661.64 L494.10 660.91 L493.13 661.16 L492.56 662.01 L489.57 663.43 L488.51 664.87 L488.18 666.36 L487.57 666.80 L486.83 665.93 L486.85 664.49 L486.61 663.27 L486.07 662.86 Z M400.42 607.42 L400.46 610.38 L399.94 610.14 L398.64 609.77 L398.07 609.43 L397.09 610.74 L395.54 610.75 L394.12 610.44 L393.50 610.80 L393.26 612.68 L392.66 614.32 L391.67 615.55 L390.32 616.17 L388.99 616.01 L388.01 615.07 L387.42 613.59 L387.23 611.76 L387.57 610.02 L388.47 608.80 L389.72 607.98 L391.10 607.44 L392.65 608.04 L394.68 607.59 L398.39 606.16 L399.14 606.05 L399.69 606.15 L400.10 606.55 L400.42 607.42 Z M405.95 588.94 L406.44 587.09 L407.55 586.81 L408.81 587.69 L409.71 589.26 L409.98 591.27 L409.63 593.21 L408.76 594.88 L407.44 596.03 L405.81 596.52 L404.86 596.16 L404.13 595.51 L403.17 595.16 L399.47 596.00 L398.07 596.03 L398.07 595.16 L399.19 594.17 L401.23 590.89 L402.78 589.46 L403.51 589.50 L404.59 589.80 L405.53 589.79 L405.95 588.94 Z M419.34 614.13 L419.73 615.35 L419.78 616.84 L419.12 618.17 L417.68 618.31 L416.35 616.98 L415.30 615.43 L414.08 615.41 L413.48 615.96 L413.08 616.16 L412.23 616.23 L411.43 615.63 L411.23 614.44 L410.20 612.53 L407.97 610.15 L407.49 608.99 L408.59 609.29 L409.49 609.29 L410.33 608.85 L411.54 608.73 L412.97 608.95 L414.03 609.43 L414.70 610.17 L415.70 610.68 L417.05 610.77 L418.15 611.04 L418.91 611.74 L419.32 612.51 L419.23 613.20 L419.34 614.13 Z M440.05 201.45 L441.47 202.53 L442.55 203.74 L442.78 205.06 L441.58 206.57 L439.28 206.71 L431.58 200.87 L432.58 199.98 L433.05 198.88 L433.70 196.26 L434.05 195.59 L434.60 194.87 L435.24 194.35 L435.89 194.19 L436.32 194.42 L436.59 194.85 L436.76 195.44 L437.11 197.99 L437.24 198.47 L437.78 199.39 L438.50 200.17 L440.05 201.45 Z M398.36 616.84 L399.72 618.08 L400.07 618.66 L400.21 619.73 L399.96 620.82 L399.49 621.84 L397.78 624.18 L396.98 624.77 L396.20 624.84 L395.04 624.73 L395.03 624.30 L393.38 623.32 L391.60 622.56 L391.10 622.74 L390.08 620.42 L390.86 619.34 L394.21 617.98 L396.26 615.12 L396.96 614.76 L397.39 615.04 L398.36 616.84 Z M408.61 601.61 L407.66 600.28 L406.88 598.83 L407.22 597.73 L408.88 596.88 L410.24 596.74 L411.32 597.36 L412.37 597.33 L412.67 596.49 L412.45 594.85 L413.53 593.79 L415.02 593.82 L415.74 593.74 L416.30 594.06 L416.84 594.85 L416.96 595.72 L415.44 596.70 L415.99 598.87 L415.72 600.18 L414.91 600.69 L413.80 600.64 L413.09 601.45 L413.12 603.00 L412.75 604.33 L411.54 605.02 L410.51 604.94 L410.26 604.12 L410.31 603.56 L408.61 601.61 Z M469.23 262.73 L469.50 263.38 L469.78 264.57 L469.18 265.85 L463.39 270.37 L460.76 270.69 L460.79 269.99 L462.03 268.35 L462.19 267.41 L461.68 266.59 L463.15 264.95 L463.20 263.28 L462.59 261.22 L461.75 259.79 L460.93 258.87 L461.18 258.59 L463.04 259.47 L464.64 258.10 L465.00 258.21 L464.67 259.42 L465.14 260.51 L466.47 261.26 L468.63 262.15 L469.23 262.73 Z M670.16 601.96 L671.24 601.51 L672.99 601.07 L674.97 600.94 L676.08 602.04 L676.38 603.83 L675.77 604.95 L676.19 605.62 L675.70 606.46 L674.55 605.99 L674.10 606.27 L674.14 606.62 L675.07 606.80 L676.00 607.58 L675.54 608.42 L674.38 609.89 L672.51 609.91 L671.69 608.85 L671.24 607.76 L670.29 607.72 L670.52 606.81 L670.20 605.89 L668.74 605.67 L668.22 605.25 L669.30 604.38 L669.51 603.32 L668.41 602.44 L666.37 601.73 L665.07 602.14 L664.30 602.10 L664.06 601.19 L664.97 600.17 L666.30 599.83 L668.05 600.55 L669.39 601.58 L670.16 601.96 Z M426.16 570.35 L426.38 569.67 L425.60 569.43 L422.69 568.94 L422.05 568.37 L421.05 568.27 L420.56 568.17 L420.07 567.72 L419.43 567.40 L418.82 566.64 L417.60 563.78 L418.29 562.66 L419.73 562.17 L421.06 562.66 L422.12 563.38 L423.08 563.04 L424.17 562.46 L424.87 562.81 L425.11 563.43 L425.67 563.40 L426.37 563.20 L426.65 564.11 L425.87 564.91 L424.83 564.97 L424.38 565.49 L424.38 566.23 L425.63 567.53 L426.68 568.01 L427.86 568.09 L428.54 569.05 L428.88 570.29 L429.45 571.07 L429.65 572.13 L429.21 573.48 L428.77 573.85 L428.47 573.41 L427.15 573.10 L426.60 572.39 L426.15 571.57 L426.16 570.35 Z M496.43 673.23 L495.95 673.74 L494.93 673.95 L494.37 673.15 L494.14 672.08 L493.53 671.23 L492.66 670.85 L491.49 671.03 L490.14 671.51 L489.05 671.50 L488.61 671.28 L488.18 670.99 L485.67 669.86 L485.51 669.39 L486.68 669.24 L487.81 668.90 L488.31 668.60 L488.73 668.40 L489.62 668.54 L490.65 669.03 L491.91 668.50 L493.44 667.23 L494.59 666.93 L495.26 667.45 L496.08 667.67 L496.56 667.64 L497.04 667.55 L498.30 667.68 L499.91 668.08 L500.91 668.67 L500.69 669.70 L500.03 670.48 L499.86 670.95 L499.74 671.92 L499.03 672.72 L498.06 672.52 L497.00 672.72 L496.43 673.23 Z M502.73 688.67 L503.81 689.68 L504.50 690.46 L504.20 692.20 L503.93 692.95 L503.21 694.25 L501.88 694.98 L500.19 695.13 L498.94 694.47 L497.92 693.53 L497.17 693.62 L496.78 694.32 L496.36 694.06 L495.90 691.92 L496.60 690.48 L496.78 689.15 L497.23 688.10 L498.03 687.31 L499.64 686.50 L501.58 687.01 L502.73 688.67 Z M467.53 692.72 L468.51 693.15 L469.46 694.35 L469.18 694.97 L468.71 694.53 L468.30 694.46 L468.10 695.01 L467.67 694.83 L466.64 694.26 L465.58 694.29 L464.97 694.89 L464.58 695.64 L463.32 696.51 L462.19 697.55 L460.49 698.60 L458.32 698.50 L457.11 696.87 L457.03 694.76 L458.02 692.69 L460.03 691.26 L461.76 691.26 L464.00 692.72 L464.67 692.81 L465.61 692.51 L466.88 692.53 L467.53 692.72 Z M573.32 653.44 L573.83 654.83 L573.83 655.65 L572.97 656.58 L570.91 657.94 L569.10 658.51 L568.45 658.13 L568.41 656.94 L567.64 656.12 L566.50 655.75 L565.97 655.03 L566.27 654.48 L565.04 653.68 L564.28 653.10 L564.69 652.06 L564.61 651.28 L564.42 650.65 L564.97 650.34 L565.78 650.69 L566.62 651.19 L568.21 651.60 L568.24 651.96 L568.77 651.82 L569.79 650.79 L570.83 650.73 L573.32 653.44 Z M410.96 633.08 L411.21 633.34 L411.43 634.05 L411.32 635.50 L410.97 637.04 L410.87 638.39 L410.24 639.09 L409.32 639.77 L408.37 640.68 L406.14 642.03 L404.90 642.22 L403.59 641.83 L403.19 641.12 L403.84 640.89 L404.53 640.85 L405.10 640.27 L405.78 639.75 L405.67 639.27 L403.15 638.71 L403.76 637.97 L405.33 637.72 L406.97 637.67 L408.26 636.67 L408.82 635.31 L408.27 633.92 L407.13 632.07 L406.42 629.73 L407.27 629.08 L408.66 630.21 L409.48 631.08 L410.87 631.87 L410.96 633.08 Z M601.80 645.59 L602.54 646.01 L603.04 646.81 L602.79 647.67 L601.38 648.17 L600.46 648.21 L600.22 647.96 L599.85 647.40 L598.80 646.81 L597.14 646.24 L596.04 645.38 L595.53 644.19 L594.98 643.33 L594.04 642.82 L593.24 641.84 L593.85 640.65 L595.76 639.73 L597.84 639.44 L599.31 640.55 L601.03 643.94 L600.83 644.92 L600.88 645.42 L601.80 645.59 Z M469.02 685.82 L469.48 686.50 L469.58 687.72 L468.79 688.40 L468.39 689.98 L466.74 690.07 L465.83 690.27 L466.38 691.26 L465.81 691.75 L464.08 691.28 L463.19 690.42 L462.97 689.86 L462.49 689.69 L461.95 689.57 L461.84 689.11 L462.42 687.44 L462.76 686.82 L462.80 686.39 L462.58 686.06 L462.67 685.75 L463.09 685.54 L463.36 685.24 L463.28 684.85 L462.70 683.88 L463.08 683.54 L463.97 683.84 L464.85 684.32 L467.21 684.73 L468.43 685.37 L469.02 685.82 Z M523.39 668.16 L523.78 668.50 L524.00 669.16 L523.31 669.30 L522.35 668.81 L521.22 668.56 L520.41 668.88 L520.70 669.26 L521.39 669.66 L520.57 670.49 L518.57 672.09 L517.41 672.63 L517.30 671.40 L517.86 670.53 L518.58 670.04 L518.17 669.49 L515.69 668.96 L516.02 668.41 L515.76 667.71 L515.00 667.24 L513.10 667.06 L512.36 666.80 L512.04 666.58 L512.30 666.32 L513.14 666.15 L513.80 665.70 L514.85 664.41 L515.98 663.45 L515.89 663.09 L516.25 663.22 L517.05 664.01 L517.79 665.13 L518.21 666.39 L519.10 666.79 L520.65 666.29 L521.78 666.16 L522.31 666.63 L522.70 667.26 L523.39 668.16 Z M336.76 620.31 L338.06 619.97 L338.28 620.53 L337.28 621.53 L336.76 622.16 L336.46 622.96 L334.67 625.07 L334.32 626.05 L333.57 627.32 L332.99 628.13 L332.53 628.64 L331.42 628.17 L330.69 626.18 L330.81 624.32 L331.44 622.62 L332.20 621.13 L333.02 619.82 L333.97 619.10 L334.90 618.92 L335.41 619.32 L335.79 620.33 L336.76 620.31 Z M454.50 259.42 L455.67 260.18 L456.11 261.87 L455.61 262.45 L454.39 262.85 L453.92 263.77 L453.83 264.63 L452.84 265.76 L451.56 266.07 L450.68 265.43 L449.75 265.52 L449.01 265.07 L448.76 263.31 L448.97 261.51 L449.90 260.24 L451.90 259.20 L454.50 259.42 Z M410.93 266.52 L410.13 266.96 L409.65 266.80 L409.66 266.31 L410.01 264.03 L410.65 262.15 L411.48 261.02 L412.40 261.63 L413.19 262.96 L414.00 263.61 L416.80 265.05 L417.66 265.98 L417.18 266.84 L415.75 268.28 L414.72 268.70 L413.39 268.90 L412.27 268.40 L411.53 267.14 L411.23 266.43 L410.93 266.52 Z M475.81 694.86 L476.27 695.12 L476.65 695.80 L476.29 696.22 L475.80 696.30 L475.63 697.13 L475.63 698.53 L475.06 699.62 L473.94 699.94 L473.36 699.59 L473.16 698.94 L472.61 698.50 L472.03 698.37 L471.78 696.50 L472.50 693.28 L472.75 691.49 L472.00 690.78 L471.78 690.14 L472.72 689.22 L472.78 688.75 L473.75 688.76 L475.67 689.76 L475.93 691.12 L474.85 692.07 L474.66 693.13 L475.81 694.86 Z M721.98 573.86 L721.48 576.74 L720.73 577.77 L720.15 577.97 L719.88 577.36 L719.32 574.92 L718.46 574.02 L718.16 573.30 L718.30 572.32 L717.91 571.16 L717.31 570.06 L717.62 569.06 L718.82 568.37 L720.12 568.23 L721.26 568.57 L722.04 570.33 L721.98 573.86 Z M418.74 605.84 L418.38 606.20 L417.99 607.10 L418.23 608.98 L417.54 609.72 L416.19 610.08 L414.87 609.32 L413.39 608.04 L411.49 607.32 L410.10 606.50 L411.21 605.55 L414.04 605.08 L415.69 604.35 L416.55 603.64 L417.64 604.13 L418.46 605.26 L418.74 605.84 Z M403.92 636.88 L402.84 637.38 L401.93 636.61 L401.49 631.77 L401.89 629.09 L402.84 627.86 L404.29 631.08 L405.50 632.86 L406.45 634.82 L406.14 636.45 L405.11 636.80 L403.92 636.88 Z M409.66 673.32 L409.55 674.86 L409.74 675.87 L409.20 676.67 L408.10 676.81 L407.47 677.35 L406.97 677.11 L406.50 676.36 L406.11 676.38 L405.92 677.07 L405.20 677.18 L402.85 676.19 L402.06 675.03 L401.99 674.27 L402.47 673.61 L402.52 672.92 L403.37 672.35 L407.27 673.18 L408.91 672.93 L409.66 673.32 Z M659.82 627.12 L660.10 627.43 L659.94 628.17 L658.85 629.53 L658.36 629.86 L657.63 629.97 L656.56 629.73 L655.67 629.86 L654.46 630.46 L653.87 631.02 L653.20 631.17 L653.09 630.65 L653.48 629.76 L653.37 629.04 L652.88 628.54 L652.45 628.44 L651.95 628.05 L652.00 627.36 L652.30 626.72 L652.35 625.96 L652.80 625.52 L653.57 625.33 L657.16 627.27 L657.17 628.13 L657.68 628.18 L659.82 627.12 Z M653.61 599.73 L655.31 601.64 L655.95 602.73 L655.50 603.48 L654.28 603.48 L653.71 603.78 L653.79 604.77 L653.45 605.19 L652.38 604.89 L651.71 604.56 L650.47 603.68 L649.75 602.59 L649.89 601.84 L650.66 600.56 L652.18 599.39 L653.61 599.73 Z M428.87 497.41 L428.37 496.89 L428.01 495.97 L428.23 495.09 L429.42 494.46 L429.26 494.24 L428.69 493.87 L428.97 493.55 L429.60 493.19 L430.02 492.59 L430.70 492.48 L431.11 492.29 L430.92 491.53 L431.41 491.55 L432.69 491.78 L433.55 491.09 L433.96 490.63 L434.45 491.00 L434.69 491.83 L434.27 492.87 L432.18 494.67 L430.78 496.24 L429.89 496.92 L429.52 497.26 L428.87 497.41 Z M300.68 709.45 L300.13 709.09 L297.91 707.01 L296.65 706.22 L296.37 705.13 L296.93 703.67 L297.79 702.85 L299.05 703.28 L300.05 704.54 L301.67 707.96 L301.78 709.06 L301.43 709.69 L300.93 709.59 L300.68 709.45 Z M419.83 570.15 L420.12 570.77 L420.23 571.49 L420.20 572.85 L419.72 573.29 L419.15 573.61 L418.54 573.38 L417.53 572.25 L417.06 571.93 L416.46 572.24 L415.91 572.18 L415.75 571.57 L415.31 571.35 L414.75 571.37 L414.59 571.06 L415.41 570.43 L415.09 570.25 L414.58 570.34 L414.09 570.20 L414.31 569.57 L415.18 568.98 L415.91 568.87 L416.90 569.33 L418.35 569.21 L419.35 569.50 L419.83 570.15 Z M548.06 713.42 L548.72 714.02 L549.53 714.25 L549.83 714.73 L549.69 715.41 L548.08 714.62 L546.53 714.25 L546.26 713.81 L545.87 712.86 L545.62 711.70 L545.20 711.39 L544.84 710.95 L544.57 710.00 L544.73 709.44 L544.68 708.79 L544.76 708.21 L545.12 708.09 L545.54 708.24 L546.06 708.07 L546.37 707.70 L546.53 707.65 L546.81 708.25 L546.42 709.54 L546.62 710.98 L548.06 713.42 Z M427.55 588.57 L426.54 589.01 L425.16 588.97 L424.60 587.71 L424.83 586.38 L425.71 585.90 L427.65 585.90 L428.31 586.17 L428.34 586.77 L427.97 588.21 L427.55 588.57 Z M364.25 203.66 L365.50 203.82 L366.29 204.63 L365.94 206.14 L364.86 207.18 L364.20 207.49 L363.83 206.72 L363.23 204.99 L363.36 203.79 L364.25 203.66 Z" fill="#111827" fill-rule="evenodd" stroke="#111827" stroke-width="6" stroke-linejoin="round"/></svg>